PathFileType	4	(X/Y/Z)	Patient4_TMGait_0pt8_01_right_10.trc.trc
DataRate	CameraRate	NumFrames	NumMarkers	Units	OrigDataRate	OrigDataStartFrame	OrigNumFrames
85.889570552147	85.889570552147	4	33	mm	85.889570552147	53	       141
Frame#	Time	Sacral			L.Shoulder			Chest			R.Shoulder			Neck			R.ASIS			L.ASIS			R.Thigh.Superior			R.Thigh.Lateral			R.Thigh.Inferior			R.Patella			L.Thigh.Superior			L.Thigh.Lateral			L.Thigh.Inferior			L.Patella			L.Shank.Superior			L.Shank.Lateral			L.Shank.Inferior			R.Shank.Superior			R.Shank.Lateral			R.Shank.Inferior			R.Heel			R.Midfoot.Superior			R.Midfoot.Lateral			R.Toe			L.Heel			L.Midfoot.Lateral			L.Midfoot.Superior			L.Toe			L.Elbow			L.Wrist			R.Elbow			R.Wrist			
		X1	Y1	Z1	X2	Y2	Z2	X3	Y3	Z3	X4	Y4	Z4	X5	Y5	Z5	X6	Y6	Z6	X7	Y7	Z7	X8	Y8	Z8	X9	Y9	Z9	X10	Y10	Z10	X11	Y11	Z11	X12	Y12	Z12	X13	Y13	Z13	X14	Y14	Z14	X15	Y15	Z15	X16	Y16	Z16	X17	Y17	Z17	X18	Y18	Z18	X19	Y19	Z19	X20	Y20	Z20	X21	Y21	Z21	X22	Y22	Z22	X23	Y23	Z23	X24	Y24	Z24	X25	Y25	Z25	X26	Y26	Z26	X27	Y27	Z27	X28	Y28	Z28	X29	Y29	Z29	X30	Y30	Z30	X31	Y31	Z31	X32	Y32	Z32	X33	Y33	Z33	

53	11.545428571429	850.008415681706	1011.297542705992	541.901887445093	999.987013303656	1443.209561630567	352.685116032704	1122.166504766425	1373.046863445819	500.091102245927	1057.807679892675	1439.410493042729	685.008644378740	998.819231756670	1500.017306121784	510.021246296259	1085.270828695563	948.043160999594	638.366360899807	1047.201820052462	968.572280529405	366.981257991307	1103.108496195808	740.597909761168	610.274694184191	1010.776900905313	636.887795706341	671.136853857633	1080.766035758449	578.331379776311	592.248583533427	1070.133030499262	492.388253363834	596.818540683243	1138.133994004765	795.520286712608	382.157149908018	1093.699154184700	665.914069876911	304.877272607936	1208.308538796814	611.243679336062	352.013306850400	1229.097311015044	525.470597751961	341.747375532571	1175.002641679294	450.651640407307	342.084575741999	1041.299464847302	379.005724820268	308.858444643993	1064.246855029189	250.483653938258	362.360506305967	1039.033853631119	405.697997147564	601.381091069081	960.670784406231	303.899825845260	657.605159324808	1002.439454468304	208.623127798224	594.102229806037	863.630128969494	46.004449925108	552.737096627510	1034.975389667880	97.454657599620	596.508558666230	944.248526368890	37.368565295083	630.210790648287	1152.576067777330	42.145894238825	627.546748801550	899.522750907147	141.556762772760	420.934951173832	955.746107636887	113.093440405867	332.129574419659	1057.591118830101	147.517322292527	341.877499330331	1156.451274552268	60.466681559598	298.633709075300	949.676911605586	1088.674501461826	253.070266280391	1029.049091355034	839.785385884911	249.285063272190	1114.755536637090	1091.955832561729	802.003450115361	1272.845739859288	885.429349834544	788.256867149258	
54	11.557071428571	848.746503586240	1011.069592688229	542.816478885727	998.558135031116	1442.142466926571	352.874336396861	1121.464834813947	1372.100085867902	499.720667874560	1058.338875121631	1438.981484639987	684.907290429699	998.654821326662	1499.237846936487	510.431285060496	1084.051590155145	947.022791396758	638.536117646522	1045.235689635425	967.940388118182	367.204352890350	1098.994075767640	739.023925294115	609.658623665959	1005.386146311659	636.385480961744	671.186768936024	1073.662815739810	576.977631583701	591.857476557177	1061.920102372063	491.540486513403	596.270823661916	1137.098269360866	797.077171895025	383.167033563984	1095.253925203708	667.197458542563	304.913660157028	1209.769475284428	613.909699929005	353.235025265484	1232.548779522595	529.624275203728	342.407915544598	1182.144836285374	453.468270482133	341.909228302780	1053.104156006076	374.415145695717	307.612522010525	1083.617043639724	246.854785741487	360.173440480655	1030.579710831953	405.062579588311	600.897855175737	952.250878694504	303.452988250316	657.456919869411	993.405230502005	208.141597968190	593.624980465395	854.199084831363	45.652441981439	552.623654918874	1025.401479399686	97.331789329519	596.274528378581	934.780781140896	37.280818018591	630.112273085102	1143.113276849629	42.166378112771	627.575231200720	925.696850070072	128.310831557588	417.462309233099	983.628169477263	103.360305488300	328.837857428204	1083.330873650748	143.369364412026	339.135460560872	1187.040609682485	62.089515625198	296.066299902209	942.616118382488	1087.960929055282	255.513274023833	1004.458846010922	834.371637333839	251.369536452552	1126.130006108652	1094.056225795585	802.101743167466	1296.577595176040	897.992562928615	784.927422874382	
55	11.568714285714	847.550017968809	1010.683051799919	543.551585201963	997.295943992290	1440.873229921918	352.909229171861	1120.875803250234	1370.930192824988	499.230267903146	1058.928193971987	1438.362506618740	684.655293967109	998.624604727948	1498.254792381250	510.708996951082	1082.851904615351	945.824656199676	638.608204505570	1043.425369382811	967.073166543611	367.283554450376	1094.847851751290	737.290771495226	609.097503651360	999.860970629568	635.803053133724	671.228110714993	1066.453938417127	575.542729361549	591.479713158068	1053.634107050735	490.608885208765	595.741943065337	1135.782850675219	798.030295944024	384.294979539592	1096.360708111790	667.984635081728	305.006454479257	1210.520365832894	615.816299274564	354.748777110472	1235.196375373077	533.206613475649	343.354341620094	1188.605682198712	456.003507657878	341.909061722176	1064.921139849637	369.693094337931	306.203413675977	1103.005690321234	243.578240397304	357.925678889035	1021.991695270047	404.389756335822	600.440409134498	943.729554994713	302.946538463780	657.334989474658	984.278646224042	207.626104620802	593.151822609330	844.757084508121	45.242267681624	552.512789835737	1015.780569680749	97.197111039424	596.033263417906	925.290240089804	37.175779112545	630.009395943427	1133.639527434856	42.215311977925	627.598434923332	952.585583013035	115.588884310585	413.613048067692	1012.211627462057	94.382945811042	325.288858510921	1109.348278518630	139.952228928729	336.321421620391	1217.710017358515	64.854994767584	293.643071875629	935.236866735724	1087.317148952694	257.632717611875	980.269958212665	830.495342538874	253.291310767592	1136.939305295499	1096.336839046114	802.083023241639	1319.351121358418	911.869844613523	781.180749779325	
56	11.580357142857	846.431315897948	1010.160205264732	544.107811333674	996.210699981073	1439.436205135806	352.788233137057	1120.406851224259	1369.559851936587	498.615422216135	1059.576326469532	1437.566262993056	684.251698648467	998.708722614520	1497.096335224839	510.826073656047	1081.693473004239	944.486483550449	638.591624780415	1041.777497848853	965.968777623511	367.227287755561	1090.701357159700	735.432043031274	608.639477848479	994.242957187585	635.172811827568	671.290539090064	1059.197231692176	574.062373734077	591.161570275091	1045.335490553627	489.619822013961	595.280349443956	1134.214753070310	798.372977616871	385.490408289141	1096.983189873684	668.253461966747	305.122268768717	1210.586299307714	616.948857001887	356.440077163764	1237.057728534412	536.190637546911	344.527665901772	1194.364510407415	458.246287654034	342.080615005115	1076.694300864832	364.943018866612	304.630628158425	1122.216104684411	240.773875222152	355.702972925601	1013.322938257848	403.710719008376	600.057270835556	935.137529662048	302.417782187438	657.273102161042	975.086102805596	207.106904728523	592.723537722234	835.308164180738	44.808884477156	552.419770630740	1006.131548017436	97.052203016504	595.798753767041	915.786591260967	37.061248908914	629.913095341729	1124.163987729986	42.279510180038	627.616355231876	979.888735704203	103.656020663778	409.480416959459	1041.219278942203	86.366181610435	321.607651937605	1135.377505948387	137.407010416140	333.559378888974	1248.143341318853	68.848120341178	291.571816806135	927.518399982577	1086.822929614434	259.399778329308	956.748854708871	828.063030435078	255.069446873515	1147.182064543174	1098.740423272943	801.920129297203	1341.007588271712	926.975394705021	777.059130125984	
